<svg height="512pt" viewBox="0 -48 512 512" width="512pt" xmlns="http://www.w3.org/2000/svg"><path d="m8 8h496v368h-496zm0 0" fill="#70a5f4"/><path d="m56 40h144v144h-144zm0 0" fill="#4b81d1"/><path d="m88 72h80v80h-80zm0 0" fill="#fcbe56"/><path d="m280 40h168v32h-168zm0 0" fill="#d64a49"/><path d="m280 72h168v32h-168zm0 0" fill="#fcbe56"/><path d="m280 104h168v32h-168zm0 0" fill="#d64a49"/><path d="m88 232c0 8.835938-7.164062 16-16 16s-16-7.164062-16-16 7.164062-16 16-16 16 7.164062 16 16zm0 0" fill="#4b81d1"/><path d="m248 232c0 8.835938-7.164062 16-16 16s-16-7.164062-16-16 7.164062-16 16-16 16 7.164062 16 16zm0 0" fill="#4b81d1"/><path d="m64 280h32v64h-32zm0 0" fill="#d64a49"/><path d="m144 280h32v64h-32zm0 0" fill="#fcbe56"/><path d="m224 280h32v64h-32zm0 0" fill="#d64a49"/><path d="m296 184h32v144h-32zm0 0" fill="#fcbe56"/><path d="m424 168h32v32h-32zm0 0" fill="#fcbe56"/><path d="m424 200h32v32h-32zm0 0" fill="#d64a49"/><path d="m424 312h32v32h-32zm0 0" fill="#d64a49"/><path d="m424 280h32v32h-32zm0 0" fill="#fcbe56"/><path d="m24 376h80v32h-80zm0 0" fill="#fcbe56"/><path d="m168 376h80v32h-80zm0 0" fill="#d64a49"/><path d="m504 0h-496c-4.425781 0-8 3.585938-8 8v368c0 4.414062 3.574219 8 8 8h8v24c0 4.414062 3.574219 8 8 8h80c4.425781 0 8-3.585938 8-8v-24h16v16h16v-16h16v24c0 4.414062 3.574219 8 8 8h80c4.425781 0 8-3.585938 8-8v-24h16v16h16v-16h16v16h16v-16h16v16h16v-16h152c4.425781 0 8-3.585938 8-8v-368c0-4.414062-3.574219-8-8-8zm-408 400h-64v-16h64zm144 0h-64v-16h64zm256-32h-480v-352h480zm0 0"/><path d="m64 72v16h16v16h-16v16h16v16h-16v16h16c0 4.414062 3.574219 8 8 8v16h16v-16h16v16h16v-16h16v16h16v-16c4.425781 0 8-3.585938 8-8h16v-16h-16v-16h16v-16h-16v-16h16v-16h-16c0-4.414062-3.574219-8-8-8v-16h-16v16h-16v-16h-16v16h-16v-16h-16v16c-4.425781 0-8 3.585938-8 8zm32 8h64v64h-64zm0 0"/><path d="m64 48h16v-16h-24c-4.425781 0-8 3.585938-8 8v24h16zm0 0"/><path d="m56 192h24v-16h-16v-16h-16v24c0 4.414062 3.574219 8 8 8zm0 0"/><path d="m192 64h16v-24c0-4.414062-3.574219-8-8-8h-24v16h16zm0 0"/><path d="m208 160h-16v16h-16v16h24c4.425781 0 8-3.585938 8-8zm0 0"/><path d="m272 136c0 4.414062 3.574219 8 8 8h168c4.425781 0 8-3.585938 8-8v-8h8v-16h-8v-16h8v-16h-8v-16h8v-16h-8v-8c0-4.414062-3.574219-8-8-8h-168c-4.425781 0-8 3.585938-8 8v8h-8v16h8v16h-8v16h8v16h-8v16h8zm168-8h-152v-16h152zm-152-48h152v16h-152zm0-32h152v16h-152zm0 0"/><path d="m72 256c13.230469 0 24-10.769531 24-24s-10.769531-24-24-24-24 10.769531-24 24 10.769531 24 24 24zm0-32c4.414062 0 8 3.59375 8 8s-3.585938 8-8 8-8-3.59375-8-8 3.585938-8 8-8zm0 0"/><path d="m232 256c13.230469 0 24-10.769531 24-24s-10.769531-24-24-24-24 10.769531-24 24 10.769531 24 24 24zm0-32c4.414062 0 8 3.59375 8 8s-3.585938 8-8 8-8-3.59375-8-8 3.585938-8 8-8zm0 0"/><path d="m64 352h32c4.425781 0 8-3.585938 8-8h8v-16h-8v-8h8v-16h-8v-8h8v-16h-8c0-4.414062-3.574219-8-8-8h-32c-4.425781 0-8 3.585938-8 8h-8v16h8v8h-8v16h8v8h-8v16h8c0 4.414062 3.574219 8 8 8zm8-64h16v48h-16zm0 0"/><path d="m176 272h-32c-4.425781 0-8 3.585938-8 8h-8v16h8v8h-8v16h8v8h-8v16h8c0 4.414062 3.574219 8 8 8h32c4.425781 0 8-3.585938 8-8h8v-16h-8v-8h8v-16h-8v-8h8v-16h-8c0-4.414062-3.574219-8-8-8zm-8 64h-16v-48h16zm0 0"/><path d="m224 272c-4.425781 0-8 3.585938-8 8h-8v16h8v8h-8v16h8v8h-8v16h8c0 4.414062 3.574219 8 8 8h32c4.425781 0 8-3.585938 8-8h8v-16h-8v-8h8v-16h-8v-8h8v-16h-8c0-4.414062-3.574219-8-8-8zm24 64h-16v-48h16zm0 0"/><path d="m328 176h-8v-16h-16v16h-8c-4.425781 0-8 3.585938-8 8v144c0 4.414062 3.574219 8 8 8h8v16h16v-16h8c4.425781 0 8-3.585938 8-8v-40h-16v32h-16v-128h16v80h16v-88c0-4.414062-3.574219-8-8-8zm0 0"/><path d="m456 160h-32c-4.425781 0-8 3.585938-8 8v64c0 4.414062 3.574219 8 8 8h32c4.425781 0 8-3.585938 8-8v-64c0-4.414062-3.574219-8-8-8zm-24 16h16v16h-16zm16 48h-16v-16h16zm0 0"/><path d="m456 272h-32c-4.425781 0-8 3.585938-8 8v64c0 4.414062 3.574219 8 8 8h32c4.425781 0 8-3.585938 8-8v-64c0-4.414062-3.574219-8-8-8zm-24 16h16v16h-16zm16 48h-16v-16h16zm0 0"/><path d="m352 160h48v16h-48zm0 0"/><path d="m368 192h16v32h-16zm0 0"/><path d="m368 240h16v16h-16zm0 0"/><path d="m352 288h16v64h16v-64h16v-16h-48zm0 0"/><path d="m112 240h16v16h-16zm0 0"/><path d="m128 208h16v16h-16zm0 0"/><path d="m160 208h16v16h-16zm0 0"/><path d="m144 240h16v16h-16zm0 0"/><path d="m176 240h16v16h-16zm0 0"/><path d="m224 32h16v16h-16zm0 0"/><path d="m224 64h16v16h-16zm0 0"/><path d="m224 96h16v16h-16zm0 0"/><path d="m224 128h16v16h-16zm0 0"/><path d="m224 160h16v16h-16zm0 0"/></svg>