<?xml version="1.0" encoding="iso-8859-1"?>
<!-- Generator: Adobe Illustrator 19.0.0, SVG Export Plug-In . SVG Version: 6.00 Build 0)  -->
<svg xmlns="http://www.w3.org/2000/svg" xmlns:xlink="http://www.w3.org/1999/xlink" version="1.1" id="Layer_1" x="0px" y="0px" viewBox="0 0 512 512" style="enable-background:new 0 0 512 512;" xml:space="preserve" width="512" height="512">
<g>
	<g>
		<rect x="214.45" y="466" style="fill:#00C8C8;" width="30" height="46"/>
	</g>
	<g>
		<rect x="334.45" y="466" style="fill:#1CADB5;" width="30" height="46"/>
	</g>
	<g>
		<g>
			<g>
				<rect x="274.45" y="466" style="fill:#00C8C8;" width="30" height="46"/>
			</g>
		</g>
	</g>
	<rect x="289.45" y="466" style="fill:#1CADB5;" width="15" height="46"/>
	<polygon style="fill:#575F64;" points="394.45,360 394.45,481 184.45,481 184.45,396.899 284.949,330 374.052,330  "/>
	<polygon style="fill:#32393F;" points="394.45,360 394.45,481 289.45,481 289.45,330 374.052,330  "/>
	<path style="fill:#FDE4E4;" d="M485.651,195c0,65.099-32.703,126-87.301,162.599l-3.9,2.401h-99.302l-5.698,3.9L205.148,420H95.651   v-60l23.401-16.5L95.651,330H26.349l69.302-138.6C97.749,85.8,183.849,0.599,289.45,0h1.201C398.05,0,485.651,87.599,485.651,195z"/>
	<path style="fill:#FCCED3;" d="M485.651,195c0,65.099-32.703,126-87.301,162.599l-3.9,2.401h-99.302l-5.698,3.9V0h1.201   C398.05,0,485.651,87.599,485.651,195z"/>
	<g>
		<rect x="274.45" y="90" style="fill:#575F64;" width="30" height="45"/>
	</g>
	<g>
		<rect x="349.45" y="180" style="fill:#32393F;" width="45" height="30"/>
	</g>
	<g>
		<rect x="274.45" y="255" style="fill:#575F64;" width="30" height="45"/>
	</g>
	<g>
		<rect x="184.45" y="180" style="fill:#575F64;" width="45" height="30"/>
	</g>
	<g>
		<rect x="95.651" y="330" style="fill:#FAAAAA;" width="88.799" height="30"/>
	</g>
	<polygon style="fill:#575F64;" points="214.45,300 244.45,300 244.45,255 214.45,270  "/>
	<polygon style="fill:#575F64;" points="229.45,240 184.45,240 184.45,270 214.45,270  "/>
	<polygon style="fill:#575F64;" points="184.45,120 184.45,150 229.45,150 214.45,120  "/>
	<polygon style="fill:#575F64;" points="244.45,90 214.45,90 214.45,120 244.45,135  "/>
	<polygon style="fill:#32393F;" points="364.45,120 349.45,150 394.45,150 394.45,120  "/>
	<polygon style="fill:#32393F;" points="364.45,90 334.45,90 334.45,135 364.45,120  "/>
	<polygon style="fill:#32393F;" points="334.45,300 364.45,300 364.45,270 334.45,255  "/>
	<polygon style="fill:#32393F;" points="394.45,270 394.45,240 349.45,240 364.45,270  "/>
	<rect x="289.45" y="90" style="fill:#32393F;" width="15" height="45"/>
	<rect x="289.45" y="255" style="fill:#32393F;" width="15" height="45"/>
	<path style="fill:#FDBF00;" d="M214.45,120v150h150V120H214.45z"/>
	<rect x="244.45" y="150" style="fill:#575F64;" width="90" height="90"/>
	<rect x="289.45" y="120" style="fill:#FF9100;" width="75" height="150"/>
	<rect x="289.45" y="150" style="fill:#32393F;" width="45" height="90"/>
	<g>
		<rect x="274.45" y="180" style="fill:#E0F4FF;" width="30" height="30"/>
	</g>
	<rect x="289.45" y="180" style="fill:#BBDCFF;" width="15" height="30"/>
</g>















</svg>
